<svg id="레이어_1" data-name="레이어 1" xmlns="http://www.w3.org/2000/svg" viewBox="0 0 24 24"><defs><style>.cls-1{stroke:#000;stroke-miterlimit:10;stroke-width:0.25px;}</style></defs> <path fill="#008a87" d="M4.47,6h2V7a2,2,0,0,0,2,2h6a2,2,0,0,0,2-2V6h2v5h2V6a2,2,0,0,0-2-2H14.29A3,3,0,0,0,8.65,4H4.47a2,2,0,0,0-2,2V20a2,2,0,0,0,2,2h6V20h-6Zm7-2a1,1,0,1,1-1,1A1,1,0,0,1,11.47,4Z"/> <path fill="#008a87" class="cls-1" d="M18.71,17.12l-.43.57-.81-2a.25.25,0,0,0-.23-.16.24.24,0,0,0-.23.17l-.71,1.91-1-4.57a.25.25,0,0,0-.49,0L14,18.58,13.13,15a.25.25,0,0,0-.48,0l-.76,2.48-.55-1.32a.24.24,0,0,0-.23-.15.23.23,0,0,0-.2.1l-.66.94,0,0H8.65a.27.27,0,0,0,0,.53h1.71a.26.26,0,0,0,.21-.11l.49-.71.65,1.53a.23.23,0,0,0,.22.16.26.26,0,0,0,.24-.19L12.86,16l.94,4a.25.25,0,0,0,.49,0l.84-5.43L16,18.57a.24.24,0,0,0,.24.2.24.24,0,0,0,.23-.16l.78-2.11L18,18.32a.25.25,0,0,0,.23.16.23.23,0,0,0,.2-.1l.6-.83,0,0h1.58a.26.26,0,0,0,0-.52H18.91A.24.24,0,0,0,18.71,17.12Z"/></svg>