<svg id="레이어_1" data-name="레이어 1" xmlns="http://www.w3.org/2000/svg" viewBox="0 0 24 24"> <path fill="#008a87" d="M5,6H7V7A2,2,0,0,0,9,9h6a2,2,0,0,0,2-2V6h2v5h2V6a2,2,0,0,0-2-2H14.82A3,3,0,0,0,9.18,4H5A2,2,0,0,0,3,6V20a2,2,0,0,0,2,2h6V20H5Zm7-2a1,1,0,1,1-1,1A1,1,0,0,1,12,4Z"/> <path fill="#008a87" d="M17.45,12a1.39,1.39,0,0,0-.28-.12l-.1,0-.18,0h-.3l-.12,0-.14,0a1.3,1.3,0,0,0-.28,1,1,1,0,0,0,.44.67.65.65,0,0,1,.56-.14l-.05.24a.42.42,0,0,0-.41.15.38.38,0,0,0,0,.43l-.22.13a.67.67,0,0,1-.06-.61A1.22,1.22,0,0,1,15.8,13a1.52,1.52,0,0,1,.26-1.07l-.15-.06-.14,0-.21,0h-.14a.93.93,0,0,0-.23,0l-.12,0a1,1,0,0,0-.32.15l0,0h-.05a1.34,1.34,0,0,0-1.42.65,1.32,1.32,0,0,0-.15.39l0,.15-.14-.06a1.36,1.36,0,0,0-1.64.59,1.33,1.33,0,0,0,.05,1.42v0a1.6,1.6,0,0,0,.43.35l.05,0a1,1,0,0,0,1.27-.43l.21.14a1.26,1.26,0,0,1-.85.61.94.94,0,0,1,.28.72,1.09,1.09,0,0,1-.56.83l-.11-.22a.84.84,0,0,0,.42-.63.79.79,0,0,0-.39-.69,1.12,1.12,0,0,1-.4-.12l0,0a1.83,1.83,0,0,1-.42-.32l0,0a1.16,1.16,0,0,0,0,1.06l0,.06,0,.07a1.28,1.28,0,0,0,.5,1.69,1.4,1.4,0,0,0,1.14.07,1.48,1.48,0,0,0,.76-1l.24.06a1.71,1.71,0,0,1-.9,1.2.52.52,0,0,1-.16.06.72.72,0,0,0,.76.28l0,.25a1,1,0,0,1-1.07-.48,2,2,0,0,1-.73-.12,1.38,1.38,0,0,0,.7,1.07,1.28,1.28,0,0,0,1.77-.37L18,12.68A1.42,1.42,0,0,0,17.45,12Zm-4.31,2.09a1.28,1.28,0,0,1-.8-.51l.21-.14a1,1,0,0,0,.63.41.77.77,0,0,0,.6-.12c.26-.18.35-.53.25-1.06l.25,0a1.56,1.56,0,0,1-.07,1,1,1,0,0,1,.32,1,1.11,1.11,0,0,1-.85.73l0-.24a.9.9,0,0,0,.65-.57.74.74,0,0,0-.22-.71.47.47,0,0,1-.15.13A1,1,0,0,1,13.14,14.11Zm1.51,2.53a1.14,1.14,0,0,1,.4,1H14.8a.87.87,0,0,0-.36-.8.79.79,0,0,0-.91.14l-.16-.19a1.09,1.09,0,0,1,1-.25,1.14,1.14,0,0,1,.14-.69,1,1,0,0,1,.82-.44l0,.24a.83.83,0,0,0-.64.33A.91.91,0,0,0,14.65,16.64Z"/> <path fill="#008a87" d="M20.83,17.66l.11-.1a1.64,1.64,0,0,0,.26-.33,1.34,1.34,0,0,0-.14-1.55l0,0v-.05a1.1,1.1,0,0,0,0-.36.76.76,0,0,0,0-.11,1,1,0,0,0-.08-.22.76.76,0,0,0-.08-.11,1,1,0,0,0-.12-.17l-.11-.1-.13-.1a1.53,1.53,0,0,1-.79.76,1.22,1.22,0,0,1-1-.06.68.68,0,0,1-.57.25v-.25a.41.41,0,0,0,.39-.19.43.43,0,0,0-.08-.43l.19-.17a.7.7,0,0,1,.15.57,1,1,0,0,0,.81,0,1.3,1.3,0,0,0,.71-.74l0-.13a.5.5,0,0,0,0-.13,1.09,1.09,0,0,0-.08-.15l-.06-.11a1.49,1.49,0,0,0-.12-.14l-.07-.08a1.46,1.46,0,0,0-.24-.17,1.34,1.34,0,0,0-.85-.17L15,19.72a1.29,1.29,0,0,0,.56,1.72,1.39,1.39,0,0,0,1.28.08,1.91,1.91,0,0,1-.47-.58,1,1,0,0,1-1-.68l.23-.1a.75.75,0,0,0,.63.52,1.16,1.16,0,0,1,0-.18,1.71,1.71,0,0,1,.6-1.37l.17.18a1.51,1.51,0,0,0-.52,1.17,1.44,1.44,0,0,0,.63.95,1.27,1.27,0,0,0,1.72-.4l0-.08h.07a1.16,1.16,0,0,0,.89-.56l0,0a1.69,1.69,0,0,1-.49-.21l0,0a1.1,1.1,0,0,1-.3-.29.79.79,0,0,0-.79,0,.85.85,0,0,0-.34.68H17.6a1.1,1.1,0,0,1,.45-.89.93.93,0,0,1,.76-.12,1.24,1.24,0,0,1,.11-1l.22.12a1,1,0,0,0,.27,1.31h0l0,0a1.67,1.67,0,0,0,.52.2h0a1.35,1.35,0,0,0,1-2.38Zm-3,.05a1.09,1.09,0,0,1-.53.47,1.11,1.11,0,0,1,.28,1l-.24-.05a.81.81,0,0,0-.34-.86.89.89,0,0,0-.88.09L16,18.14A1.15,1.15,0,0,1,17,18a.87.87,0,0,0,.57-.41.77.77,0,0,0,0-.72l.23-.1A1.05,1.05,0,0,1,17.81,17.71Zm3,.79a1.29,1.29,0,0,1-.84-.44,1,1,0,0,1-.25-.76.63.63,0,0,1,0-.19.72.72,0,0,0-.72.17.86.86,0,0,0-.16.84l-.24.09a1.14,1.14,0,0,1,.22-1.1,1,1,0,0,1,1-.23,1.57,1.57,0,0,1,.81-.53l.08.23c-.51.18-.77.43-.8.74a.79.79,0,0,0,.2.58,1,1,0,0,0,.67.35Z"/></svg>