<svg id="레이어_1" data-name="레이어 1" xmlns="http://www.w3.org/2000/svg" viewBox="0 0 24 24"><defs><style>.cls-1{fill:none;}</style></defs> <path fill="#008a87" d="M5,6H7V7A2,2,0,0,0,9,9h6a2,2,0,0,0,2-2V6h2v5h2V6a2,2,0,0,0-2-2H14.82A3,3,0,0,0,9.18,4H5A2,2,0,0,0,3,6V20a2,2,0,0,0,2,2h6V20H5Zm7-2a1,1,0,1,1-1,1A1,1,0,0,1,12,4Z"/> <path fill="#008a87" class="cls-1" d="M12,8.06H24v12H12Z"/> <path fill="#008a87" d="M19,17.81v-.87l-1.24,1.25L19,19.44v-.88h2.76v-.75Zm1.52,2.13H17.75v.75h2.76v.87l1.24-1.25-1.24-1.25Zm-5-7.13a1,1,0,1,0-1-1A1,1,0,0,0,15.5,12.81Zm-1.88,1.7-1.37,7H13.3l.87-4,1.08,1v3h1V17.79l-1-1,.31-1.5a3.48,3.48,0,0,0,2.72,1.3v-1a2.59,2.59,0,0,1-2.18-1.22l-.47-.8a1,1,0,0,0-.85-.48,1,1,0,0,0-.37.08l-2.63,1.07v2.35h1V14.89l.87-.38"/></svg>