<svg id="레이어_1" data-name="레이어 1" xmlns="http://www.w3.org/2000/svg" viewBox="0 0 24 24"> <path fill="#008a87" d="M5,6H7V7A2,2,0,0,0,9,9h6a2,2,0,0,0,2-2V6h2v5h2V6a2,2,0,0,0-2-2H14.82A3,3,0,0,0,9.18,4H5A2,2,0,0,0,3,6V20a2,2,0,0,0,2,2h6V20H5Zm7-2a1,1,0,1,1-1,1A1,1,0,0,1,12,4Z"/> <path fill="#008a87" d="M15.47,16.75l.87-1.5a.22.22,0,0,0-.05-.28l-.92-.71a3,3,0,0,0,0-.43,3,3,0,0,0,0-.42l.92-.72a.22.22,0,0,0,.05-.28l-.87-1.5a.21.21,0,0,0-.26-.09l-1.08.43a3.59,3.59,0,0,0-.73-.43l-.16-1.14A.23.23,0,0,0,13,9.5H11.28a.22.22,0,0,0-.21.18l-.16,1.15a3.24,3.24,0,0,0-.74.43L9.1,10.82a.21.21,0,0,0-.27.1L8,12.41a.22.22,0,0,0,0,.28l.92.72a3,3,0,0,0,0,.42,3,3,0,0,0,0,.43L8,15a.23.23,0,0,0,0,.28l.87,1.5a.22.22,0,0,0,.27.09l1.07-.43a3.87,3.87,0,0,0,.74.43L11.07,18a.22.22,0,0,0,.21.18H13a.23.23,0,0,0,.22-.18l.16-1.15a3.18,3.18,0,0,0,.73-.43l1.08.44A.21.21,0,0,0,15.47,16.75Zm-3.32-1.68a1.24,1.24,0,1,1,1.24-1.24A1.24,1.24,0,0,1,12.15,15.07Z"/> <path fill="#008a87" d="M20.28,19.83l-.6-.46a2.48,2.48,0,0,0,0-.27,1.27,1.27,0,0,0,0-.28l.59-.46a.14.14,0,0,0,0-.18l-.56-1a.14.14,0,0,0-.17-.06l-.69.28a2,2,0,0,0-.47-.27l-.1-.73a.14.14,0,0,0-.14-.13h-1.1a.14.14,0,0,0-.14.12l-.11.73a3.17,3.17,0,0,0-.47.27l-.69-.27a.14.14,0,0,0-.17.06l-.56,1a.15.15,0,0,0,0,.18l.59.46a1.83,1.83,0,0,0,0,.54l-.59.46a.17.17,0,0,0,0,.18l.56,1a.14.14,0,0,0,.17.06l.69-.28a1.89,1.89,0,0,0,.47.28l.11.73a.14.14,0,0,0,.14.12h1.1a.13.13,0,0,0,.14-.12l.11-.73a2,2,0,0,0,.46-.28l.7.28a.14.14,0,0,0,.17-.06l.56-1A.14.14,0,0,0,20.28,19.83Zm-2.66.1a.85.85,0,0,1-.84-.84.84.84,0,1,1,.84.84Z"/></svg>