<svg id="레이어_1" data-name="레이어 1" xmlns="http://www.w3.org/2000/svg" viewBox="0 0 24 24"><path fill="#008a87" d="M5,6H7V7A2,2,0,0,0,9,9h6a2,2,0,0,0,2-2V6h2v5h2V6a2,2,0,0,0-2-2H14.82A3,3,0,0,0,9.18,4H5A2,2,0,0,0,3,6V20a2,2,0,0,0,2,2h6V20H5Zm7-2a1,1,0,1,1-1,1A1,1,0,0,1,12,4Z" /><path fill="#008a87" d="M21,17.91l.39-.4a.53.53,0,0,0,0-.77h0a.55.55,0,0,0-.77,0L19.08,18.3l-4.69-4.69L16,12.05a.55.55,0,0,0,0-.77h0a.54.54,0,0,0-.78,0l-.39.39-.39-.39a.54.54,0,0,0-.78,0l-.78.78-.39-.4a.56.56,0,0,0-.79.79l.4.39-.78.78a.53.53,0,0,0,0,.77l.39.4-.39.39a.54.54,0,0,0,0,.78h0a.55.55,0,0,0,.77,0l1.56-1.57,4.69,4.69-1.57,1.56a.55.55,0,0,0,0,.77h0a.53.53,0,0,0,.77,0l.4-.39.39.39a.53.53,0,0,0,.77,0l.78-.78.4.39A.54.54,0,0,0,21,21a.56.56,0,0,0,0-.78l-.39-.39.78-.78a.53.53,0,0,0,0-.77Z" /></svg>