<svg id="레이어_1" data-name="레이어 1" xmlns="http://www.w3.org/2000/svg" viewBox="0 0 24 24"><defs><style>.cls-1{fill:none;}</style></defs><rect class="cls-1" x="1.03" width="24" height="24"/> <path fill="#008a87" d="M4.47,6h2V7a2,2,0,0,0,2,2h6a2,2,0,0,0,2-2V6h2v5h2V6a2,2,0,0,0-2-2H14.29A3,3,0,0,0,8.65,4H4.47a2,2,0,0,0-2,2V20a2,2,0,0,0,2,2h6V20h-6Zm7-2a1,1,0,1,1-1,1A1,1,0,0,1,11.47,4Z"/><circle cx="16.52" cy="15.62" r="0.67"/><circle cx="13.84" cy="15.62" r="0.67"/> <path fill="#008a87" d="M21,16.77a2.06,2.06,0,0,0,0-.7,2.16,2.16,0,0,0-1.51-1.7,4.81,4.81,0,0,0-8.7,0,2.14,2.14,0,0,0-1.51,1.7,2.06,2.06,0,0,0,0,.7,2.16,2.16,0,0,0,1.51,1.7A4.93,4.93,0,0,0,12,20a4.74,4.74,0,0,0,3.19,1.22A4.8,4.8,0,0,0,18.38,20a4.93,4.93,0,0,0,1.16-1.55A2.15,2.15,0,0,0,21,16.77Zm-2.11.72-.16,0a4,4,0,0,1-.46,1,3.73,3.73,0,0,1-6.26,0,3.64,3.64,0,0,1-.46-1l-.16,0a1.07,1.07,0,1,1,0-2.14h.16a3.58,3.58,0,0,1,.46-1,3.73,3.73,0,0,1,6.26,0,3.89,3.89,0,0,1,.46,1h.16a1.07,1.07,0,0,1,0,2.14Zm-6.16,0a2.61,2.61,0,0,0,4.82,0Z"/></svg>