<svg id="레이어_1" data-name="레이어 1" xmlns="http://www.w3.org/2000/svg" viewBox="0 0 24 24"><defs><style>.cls-1{fill:none;}</style></defs> <path fill="#008a87" d="M5,6H7V7A2,2,0,0,0,9,9h6a2,2,0,0,0,2-2V6h2v5h2V6a2,2,0,0,0-2-2H14.82A3,3,0,0,0,9.18,4H5A2,2,0,0,0,3,6V20a2,2,0,0,0,2,2h6V20H5Zm7-2a1,1,0,1,1-1,1A1,1,0,0,1,12,4Z"/><rect class="cls-1" y="-0.57" width="24" height="24"/> <path fill="#008a87" d="M17.27,14a1.6,1.6,0,0,0,1-1H19.9l-1.58,3.68a1.72,1.72,0,0,0,1.84,1.57A1.72,1.72,0,0,0,22,16.73l-1.58-3.68h1V12H18.23a1.57,1.57,0,0,0-3,0H12v1.05h1.05l-1.57,3.68a1.72,1.72,0,0,0,1.84,1.57,1.72,1.72,0,0,0,1.84-1.57l-1.58-3.68h1.67a1.57,1.57,0,0,0,1,1v5.87H11.49v1.05H22V19.88H17.27Zm3.87,2.72h-2l1-2.3Zm-6.83,0h-2l1-2.3Zm2.43-3.68a.52.52,0,0,1-.52-.53.52.52,0,0,1,.52-.52.52.52,0,0,1,.53.52A.53.53,0,0,1,16.74,13.05Z"/></svg>