<svg id="레이어_1" data-name="레이어 1" xmlns="http://www.w3.org/2000/svg" viewBox="0 0 24 24"> <path fill="#008a87" d="M5,6H7V7A2,2,0,0,0,9,9h6a2,2,0,0,0,2-2V6h2v5h2V6a2,2,0,0,0-2-2H14.82A3,3,0,0,0,9.18,4H5A2,2,0,0,0,3,6V20a2,2,0,0,0,2,2h6V20H5Zm7-2a1,1,0,1,1-1,1A1,1,0,0,1,12,4Z"/><circle cx="16.51" cy="12.11" r="1.15"/> <path fill="#008a87" d="M18.76,14.48a1.78,1.78,0,0,0-1.37-.64H15.93a2.9,2.9,0,0,1-2.84-2.4.59.59,0,0,0-.57-.49h0a.58.58,0,0,0-.58.66,4.08,4.08,0,0,0,2.84,3.22v7.09a.58.58,0,0,0,.58.58h0a.58.58,0,0,0,.57-.58V19h1.16v2.88a.58.58,0,0,0,.58.58h0a.58.58,0,0,0,.57-.58V15.6l1.87,1.87a.57.57,0,0,0,.82,0h0a.58.58,0,0,0,0-.81Z"/></svg>